<?xml version="1.0" encoding="utf-8"?>
<?xml-stylesheet type="text/xsl" href="rss1.xsl"?>
<rss version="2.0" xmlns:atom="http://www.w3.org/2005/Atom" xmlns:content="http://purl.org/rss/1.0/modules/content/" xmlns:dc="http://purl.org/dc/elements/1.1/" xmlns:media="http://search.yahoo.com/mrss/">
<channel>
 <title>Getty</title>
 <link>http://www.gettyimg.com/</link>
 <atom:link href="http://www.gettyimg.com/" rel="self" type="application/rss+xml" />

 
                <item>
                <title><![CDATA[【Requests】[REQ VID] - Girls Aloud Performances: SOTU, Life Got Cold, Jump, Long Hot Summer, etc]]></title>
                <link><![CDATA[https://sharemania.us/threads/girls-aloud-performances-sotu-life-got-cold-jump-long-hot-summer-etc.250779/]]></link>
                <description><![CDATA[<article>
<blockquote class="messageText SelectQuoteContainer ugc baseHtml">
Hi, <br>
<br>
I am looking for any and all Girls Aloud performances, as close to HQ as possible. I am remastering as many as I am able to find and posting them on Youtube either in 1080 or 4K<a href="https://www.youtube.com/channel/UCQQ-8Rhl7C40j7R9MdHQqWQ" target="_blank" class="externalLink" rel="nofollow"> here</a>, but I've gone through pretty much all I have, so I'm close to hitting a wall. <br>
<br>
I am mainly looking for early performances of them, SOTU, NGA, Life Got Cold, Jump, Love Machine, See The Day, etc. Also looking for Something New on Strictly and on TOTP. I need TV performances, the ones from festivals, TV specials, DVDs, etc, I already have. <br>
<br>
I am doing this for fun, so any help so I can keep doing it will be very much appreciated. Many thanks!
<div class="messageTextEndMarker">&nbsp;</div>
</blockquote>
</article>]]></description>
                <author><![CDATA[WalkingPrimrose24]]></author>
                </item>

                
                <item>
                <title><![CDATA[【Music Videos】Ch!pz - Christmas Time Is Here (1080p) VJ-RoGeRs Video Edit (Clean)]]></title>
                <link><![CDATA[https://sharemania.us/threads/ch-pz-christmas-time-is-here-1080p-vj-rogers-video-edit-clean.250781/]]></link>
                <description><![CDATA[<article>
<blockquote class="messageText SelectQuoteContainer ugc baseHtml">
<img src="https://i.ibb.co/R3RX6rt/Ch-pz-Christmas-Time-Is-Here-1080p-VJ-Ro-Ge-Rs-Video-Edit-mp4-thumbs-2024-07-23-14-45-50.jpg" class="bbCodeImage LbImage" alt="[​IMG]" data-url="https://i.ibb.co/R3RX6rt/Ch-pz-Christmas-Time-Is-Here-1080p-VJ-Ro-Ge-Rs-Video-Edit-mp4-thumbs-2024-07-23-14-45-50.jpg" style=""> <br>
<br>
<div class="ToggleTriggerAnchor bbCodeSpoilerContainer">
<button type="button" class="button bbCodeSpoilerButton ToggleTrigger Tooltip JsOnly" data-target="> .SpoilerTarget"><span>Spoiler: <span class="SpoilerTitle">MediaInfo</span></span></button>
<div class="SpoilerTarget bbCodeSpoilerText">Ch!pz - Christmas Time Is Here (1080p) VJ-RoGeRs Video Edit.mp4<br>
Format : MPEG-4<br>
Format profile : Base Media / Version 2<br>
Codec ID : mp42 (mp42/mp41)<br>
File size : 305 MiB<br>
Duration : 4 min 8 s<br>
Overall bit rate mode : Variable<br>
Overall bit rate : 10.3 Mb/s<br>
Frame rate : 30.000 FPS<br>
Encoded date : 2024-07-23 17:26:38 UTC<br>
Tagged date : 2024-07-23 18:36:46 UTC<br>
TIM : 00:00:00:00<br>
TSC : 30<br>
TSZ : 1<br>
<br>
Video<br>
ID : 1<br>
Format : AVC<br>
Format/Info : Advanced Video Codec<br>
Format profile : Main@L4.1<br>
Format settings : CABAC / 4 Ref Frames<br>
Format settings, CABAC : Yes<br>
Format settings, Reference : 4 frames<br>
Codec ID : avc1<br>
Codec ID/Info : Advanced Video Coding<br>
Duration : 4 min 8 s<br>
Bit rate : 9 971 kb/s<br>
Width : 1 920 pixels<br>
Height : 1 080 pixels<br>
Display aspect ratio : 16:9<br>
Frame rate mode : Constant<br>
Frame rate : 30.000 FPS<br>
Color space : YUV<br>
Chroma subsampling : 4:2:0<br>
Bit depth : 8 bits<br>
Scan type : Progressive<br>
Bits/(Pixel*Frame) : 0.160<br>
Stream size : 296 MiB (97%)<br>
Language : English<br>
Encoded date : 2024-07-23 17:26:48 UTC<br>
Tagged date : 2024-07-23 17:26:48 UTC<br>
Color range : Limited<br>
Color primaries : BT.709<br>
Transfer characteristics : BT.709<br>
Matrix coefficients : BT.709<br>
Codec configuration box : avcC<br>
<br>
Audio<br>
ID : 2<br>
Format : AAC LC<br>
Format/Info : Advanced Audio Codec Low Complexity<br>
Codec ID : mp4a-40-2<br>
Duration : 4 min 8 s<br>
Source duration : 4 min 8 s<br>
Bit rate mode : Variable<br>
Bit rate : 317 kb/s<br>
Maximum bit rate : 490 kb/s<br>
Channel(s) : 2 channels<br>
Channel layout : L R<br>
Sampling rate : 48.0 kHz<br>
Frame rate : 46.875 FPS (1024 SPF)<br>
Compression mode : Lossy<br>
Stream size : 9.41 MiB (3%)<br>
Source stream size : 9.41 MiB (3%)<br>
Language : English<br>
Encoded date : 2024-07-23 17:26:45 UTC<br>
Tagged date : 2024-07-23 17:26:45 UTC</div>
</div><br>
<div class="bbCodeBlock bbCodeVfcHH HiddenContent">
<div class="attribution type">Hidden Content:</div>
<blockquote>You must reply before you can see the hidden data contained here.</blockquote>
</div>
<div class="messageTextEndMarker">&nbsp;</div>
</blockquote>
</article>]]></description>
                <author><![CDATA[DJ-RoGeRs-BS]]></author>
                </item>

                
                <item>
                <title><![CDATA[【Apple Music】WEB-RiP - Mabel - Thinking of You (1080p)]]></title>
                <link><![CDATA[https://sharemania.us/threads/mabel-thinking-of-you-1080p.250780/]]></link>
                <description><![CDATA[<article>
<blockquote class="messageText SelectQuoteContainer ugc baseHtml">
<img src="https://i.postimg.cc/9fyMfq4X/Mabel-Thinking-of-You-mp4.jpg" class="bbCodeImage LbImage" alt="[​IMG]" data-url="https://i.postimg.cc/9fyMfq4X/Mabel-Thinking-of-You-mp4.jpg" style=""><br>
<br>
<div class="bbCodeBlock bbCodeCode">
<div class="type">Code:</div>
<pre>General
Complete name                  : G:\Новая папка\Mabel - Thinking of You.mp4
Format                         : MPEG-4
Format profile                 : Base Media
Codec ID                       : isom (isom/iso2/avc1/mp41)
File size                      : 261 MiB
Duration                       : 3 min 35 s
Overall bit rate               : 10.2 Mb/s
Frame rate                     : 25.000 FPS
Movie name                     : Thinking of You
Performer                      : Mabel
Genre                          : Pop
ContentType                    : Music Video
Recorded date                  : 2016-06-28 07:00:00 UTC
Writing application            : Lavf56.30.100
Copyright                      : ℗ 2016 Mabel McVey, under exclusive licence to Polydor Records, a division of Universal Music Operations Limited

Video
ID                             : 1
Format                         : AVC
Format/Info                    : Advanced Video Codec
Format profile                 : High@L4
Format settings                : CABAC / 4 Ref Frames
Format settings, CABAC         : Yes
Format settings, Reference fra : 4 frames
Format settings, Slice count   : 8 slices per frame
Codec ID                       : avc1
Codec ID/Info                  : Advanced Video Coding
Duration                       : 3 min 35 s
Bit rate                       : 9 903 kb/s
Width                          : 1 920 pixels
Height                         : 1 080 pixels
Display aspect ratio           : 16:9
Frame rate mode                : Constant
Frame rate                     : 25.000 FPS
Color space                    : YUV
Chroma subsampling             : 4:2:0
Bit depth                      : 8 bits
Scan type                      : Progressive
Bits/(Pixel*Frame)             : 0.191
Stream size                    : 255 MiB (97%)
Color range                    : Limited
Color primaries                : BT.709
Transfer characteristics       : BT.709
Matrix coefficients            : BT.709
Codec configuration box        : avcC

Audio
ID                             : 2
Format                         : AAC LC
Format/Info                    : Advanced Audio Codec Low Complexity
Codec ID                       : mp4a-40-2
Duration                       : 3 min 35 s
Duration_LastFrame             : -20 ms
Bit rate mode                  : Constant
Bit rate                       : 257 kb/s
Channel(s)                     : 2 channels
Channel layout                 : L R
Sampling rate                  : 48.0 kHz
Frame rate                     : 46.875 FPS (1024 SPF)
Compression mode               : Lossy
Stream size                    : 6.61 MiB (3%)
Default                        : Yes
Alternate group                : 1

</pre>
</div>
<div class="bbCodeBlock bbCodeVfcHH HiddenContent">
<div class="attribution type">Hidden Content:</div>
<blockquote>You must either reply or click 'Like' to see the hidden information contained here.</blockquote>
</div>
<div class="messageTextEndMarker">&nbsp;</div>
</blockquote>
</article>]]></description>
                <author><![CDATA[vitalya3]]></author>
                </item>

                
                <item>
                <title><![CDATA[【Apple Music】WEB-RiP - Elena &amp; Adi Cristescu - Polul nord (Brrrrr….) [feat. Uddi] (1080p)]]></title>
                <link><![CDATA[https://sharemania.us/threads/elena-adi-cristescu-polul-nord-brrrrr%E2%80%A6-feat-uddi-1080p.250778/]]></link>
                <description><![CDATA[<article>
<blockquote class="messageText SelectQuoteContainer ugc baseHtml">
<img src="https://i.postimg.cc/hPCK41p1/Elena-Adi-Cristescu-Polul-nord-Brrrrr-feat-Uddi-mp4.jpg" class="bbCodeImage LbImage" alt="[​IMG]" data-url="https://i.postimg.cc/hPCK41p1/Elena-Adi-Cristescu-Polul-nord-Brrrrr-feat-Uddi-mp4.jpg" style=""><br>
<br>
<div class="bbCodeBlock bbCodeCode">
<div class="type">Code:</div>
<pre>General
Complete name                  : G:\Новая папка\Elena &amp; Adi Cristescu - Polul nord (Brrrrr….) [feat. Uddi].mp4
Format                         : MPEG-4
Format profile                 : Base Media
Codec ID                       : isom (isom/iso2/avc1/mp41)
File size                      : 170 MiB
Duration                       : 3 min 33 s
Overall bit rate               : 6 687 kb/s
Frame rate                     : 25.000 FPS
Movie name                     : Polul nord (Brrrrr….) [feat. Uddi]
Performer                      : Elena &amp; Adi Cristescu
Genre                          : Pop
ContentType                    : Music Video
Recorded date                  : 2021-09-02 07:00:00 UTC
Writing application            : Lavf56.30.100
Copyright                      : ℗ 2014 Cat Music

Video
ID                             : 1
Format                         : AVC
Format/Info                    : Advanced Video Codec
Format profile                 : High@L4
Format settings                : CABAC / 5 Ref Frames
Format settings, CABAC         : Yes
Format settings, Reference fra : 5 frames
Format settings, Slice count   : 8 slices per frame
Codec ID                       : avc1
Codec ID/Info                  : Advanced Video Coding
Duration                       : 3 min 33 s
Bit rate                       : 6 425 kb/s
Width                          : 1 920 pixels
Height                         : 864 pixels
Display aspect ratio           : 2.222
Frame rate mode                : Constant
Frame rate                     : 25.000 FPS
Color space                    : YUV
Chroma subsampling             : 4:2:0
Bit depth                      : 8 bits
Scan type                      : Progressive
Bits/(Pixel*Frame)             : 0.155
Stream size                    : 164 MiB (96%)
Color range                    : Limited
Color primaries                : BT.709
Transfer characteristics       : BT.709
Matrix coefficients            : BT.709
Codec configuration box        : avcC

Audio
ID                             : 2
Format                         : AAC LC
Format/Info                    : Advanced Audio Codec Low Complexity
Codec ID                       : mp4a-40-2
Duration                       : 3 min 33 s
Duration_LastFrame             : -1 ms
Bit rate mode                  : Constant
Bit rate                       : 258 kb/s
Channel(s)                     : 2 channels
Channel layout                 : L R
Sampling rate                  : 48.0 kHz
Frame rate                     : 46.875 FPS (1024 SPF)
Compression mode               : Lossy
Stream size                    : 6.56 MiB (4%)
Default                        : Yes
Alternate group                : 1

</pre>
</div>
<div class="bbCodeBlock bbCodeVfcHH HiddenContent">
<div class="attribution type">Hidden Content:</div>
<blockquote>You must either reply or click 'Like' to see the hidden information contained here.</blockquote>
</div>
<div class="messageTextEndMarker">&nbsp;</div>
</blockquote>
</article>]]></description>
                <author><![CDATA[vitalya3]]></author>
                </item>

                </channel></rss>